IKResults																																			
version=1																																			
nRows=21																																			
nColumns=36																																			
inDegrees=yes																																			
																																			
"Units are S.I. units (second, meters, Newtons, ...)"																																			
"If the header above contains a line with 'inDegrees', this indicates whether rotational values are in degrees (yes) or radians (no)."																																			
																																			
endheader																																			
time	pelvis_tilt	pelvis_list	pelvis_rotation	pelvis_tx	pelvis_ty	pelvis_tz	hip_flexion_r	hip_adduction_r	hip_rotation_r	knee_angle_r	knee_angle_r_beta	ankle_angle_r	hip_flexion_l	hip_adduction_l	hip_rotation_l	knee_angle_l	knee_angle_l_beta	ankle_angle_l	lumbar_extension	lumbar_bending	lumbar_rotation	arm_flex_r	arm_add_r	arm_rot_r	elbow_flex_r	pro_sup_r	wrist_flex_r	wrist_dev_r	arm_flex_l	arm_add_l	arm_rot_l	elbow_flex_l	pro_sup_l	wrist_flex_l	wrist_dev_l
5.27	-0.65344567	5.63291948	168.3076299	0	0.84590545	-0.40808859	16.01921946	-4.65450818	-8.8347162	60.46701298	1.05534847	9.06245836	4.33349131	-5.42862149	-14.54232907	0.74132079	0.01293849	3.80083168	-9.45736922	-1.16783504	-8.50840964	-2.18070294	-2.5356245	-26.85158304	34.51203995	54.56457246	0	0	8.73209011	-11.5449094	-4.64941325	53.08524973	51.17046169	0	0
5.28	-0.67809702	5.71933945	168.1569012	0	0.84601838	-0.40784662	17.02238886	-4.48267423	-9.36697914	59.87912222	1.04508784	9.3457309	3.90238422	-5.40269609	-14.77580256	0.674366	0.01176991	3.98386197	-9.09976981	-1.16261503	-8.95491087	-2.41623431	-2.39315819	-26.94660279	34.38672852	54.56648828	0	0	9.07629742	-11.62983685	-4.50701277	53.5211286	51.18869375	0	0
5.29	-0.41955893	6.15249728	168.0141948	0	0.84601926	-0.40786177	18.08402176	-3.7184047	-9.86824885	58.90028441	1.02800389	10.07647871	3.72263347	-5.83094328	-14.82034187	0.66497796	0.01160605	4.3854024	-8.92229404	-1.22157616	-9.22216713	-2.58646517	-2.28690404	-27.12605452	34.20707988	54.57383393	0	0	9.34794515	-11.7808407	-4.17679114	54.29701484	51.21925251	0	0
5.3	-0.3074836	6.40840732	167.8786917	0	0.84605901	-0.40781434	18.98746034	-3.24328864	-10.46128655	57.73382946	1.00764541	10.31516704	3.43321564	-6.04208248	-14.9847194	0.66372861	0.01158425	4.71991342	-8.61949719	-1.28842632	-9.58808328	-2.74570223	-2.13072877	-27.31383318	33.99084546	54.58152337	0	0	9.55861446	-11.91166438	-3.84092031	55.01322762	51.24536089	0	0
5.31	-0.16803192	6.66908476	167.7327699	0	0.84602426	-0.40783428	19.85055356	-2.74465702	-11.08074251	56.38027549	0.98402144	10.54379911	3.15415164	-6.25658606	-15.08669114	0.63370691	0.01106027	4.99736669	-8.39623761	-1.34872885	-9.87598007	-2.83032525	-1.99728165	-27.4911018	33.76942258	54.58799438	0	0	9.68965086	-12.03640913	-3.53707817	55.68886119	51.27215585	0	0
5.32	-0.06146849	6.9128677	167.6059148	0	0.84599586	-0.40785546	20.60269658	-2.285308	-11.76481134	54.82644654	0.95690201	10.61215647	2.86572481	-6.45321284	-15.21815663	0.6379817	0.01113488	5.30186693	-8.06941886	-1.51238063	-10.23045379	-2.5406946	-1.75549523	-28.6325698	32.86628146	54.65925704	0	0	9.27738438	-12.68165173	-1.85099045	58.16307474	51.36479586	0	0
5.33	0.0220554	7.14289423	167.4822377	0	0.84595685	-0.40794567	21.25823432	-1.83700747	-12.46387572	53.11110705	0.92696369	10.58282776	2.5434399	-6.6297939	-15.32006974	0.62657428	0.01093578	5.58940274	-7.86829658	-1.59458608	-10.40338553	-2.6699977	-1.64316248	-28.7337729	32.77540042	54.66610168	0	0	9.59374806	-12.60547359	-1.77076855	58.2950758	51.3757164	0	0
5.34	0.13845147	7.29967004	167.3536051	0	0.84579516	-0.40805009	21.92549191	-1.46129181	-13.17254219	51.30248428	0.89539727	10.54016539	2.28406246	-6.73724577	-15.43123726	0.63272659	0.01104316	5.85390723	-7.66609673	-1.65498759	-10.48378771	-2.81648159	-1.54566073	-28.85152435	32.64558994	54.67312077	0	0	9.89587361	-12.51925084	-1.65920944	58.47684359	51.38745508	0	0
5.35	0.19042739	7.53795375	167.258778	0	0.84572359	-0.40819939	22.40955792	-1.01540684	-13.95502176	49.3106247	0.86063276	10.29678512	1.92711201	-6.91723718	-15.49188147	0.62312642	0.01087561	6.1400986	-7.49216249	-1.62026114	-10.65628599	-2.94363388	-1.47709774	-28.96264598	32.49933827	54.6779099	0	0	10.13392941	-12.39671257	-1.53055345	58.64721276	51.3967692	0	0
5.36	0.2964651	7.68943838	167.1516164	0	0.84551267	-0.40840571	22.94433609	-0.62912627	-14.69024441	47.27401475	0.82508721	10.05658157	1.65805016	-7.02275834	-15.5568395	0.6256847	0.01092026	6.39561074	-7.26409497	-1.58123435	-10.66774654	-2.95333323	-1.40033075	-29.04830624	32.37009487	54.68151756	0	0	10.36346498	-12.26916459	-1.40745178	58.82217273	51.40556823	0	0
5.37	0.3672043	7.85405855	167.0562764	0	0.84531216	-0.40864769	23.37909914	-0.23027157	-15.44551588	45.14479366	0.78792529	9.6768715	1.34714735	-7.13703288	-15.61164469	0.63917489	0.01115571	6.65933158	-7.05911604	-1.54852285	-10.67806046	-2.95208068	-1.35086287	-29.13585943	32.22096739	54.68443474	0	0	10.58193379	-12.12839916	-1.26785704	58.96458827	51.4122198	0	0
5.38	0.31734511	8.03034482	166.983545	0	0.84520898	-0.40892843	23.63210667	0.16711762	-16.18703472	42.94439073	0.74952101	9.22304326	0.90195626	-7.24114247	-15.69090835	0.64823672	0.01131387	6.91911234	-6.96902475	-1.50343993	-10.83944363	-2.99820183	-1.29001192	-29.19744231	32.10964093	54.68570954	0	0	10.70109697	-11.98750536	-1.1582849	59.04236463	51.41576579	0	0
5.39	0.53475493	8.08853905	166.8547049	0	0.84473575	-0.40934798	24.20446705	0.55287438	-16.79272529	40.77846778	0.71171853	8.73597008	0.77021919	-7.28287947	-15.70243704	0.66564521	0.0116177	7.14396309	-6.94522343	-1.25783629	-10.97826509	-3.01978889	-1.24040821	-29.26852176	31.9699687	54.68717839	0	0	10.7653667	-11.78582571	-1.01929677	59.07824575	51.41620213	0	0
5.4	0.62592113	8.18449973	166.7600073	0	0.84439089	-0.40978403	24.58116004	0.96648965	-17.37456429	38.55010107	0.67282619	8.12471246	0.50187773	-7.34457179	-15.74720387	0.69215127	0.01208032	7.38600209	-6.92416836	-1.08184844	-11.02281449	-2.97931087	-1.20317128	-29.3706926	31.74463168	54.68823362	0	0	10.77789685	-11.62266441	-0.87173169	59.07464523	51.4160304	0	0
5.41	0.66830034	8.30010918	166.6930638	0	0.84407528	-0.41030001	24.86254479	1.42031262	-17.8770086	36.29080819	0.63339409	7.46746749	0.17389104	-7.4318983	-15.84894083	0.72001935	0.01256671	7.63561746	-6.98643556	-0.94441399	-11.20513835	-2.41058828	-1.10853777	-30.54365206	30.34375732	54.74167674	0	0	10.75787874	-11.62622596	-0.24057837	58.8082523	51.43270092	0	0
5.42	0.8926196	8.28417209	166.5652342	0	0.84346783	-0.4109371	25.38609435	1.85426041	-18.09358087	34.11418789	0.5954049	6.88753568	0.05724513	-7.40949706	-15.8367739	0.72276021	0.01261455	7.84722264	-7.18714184	-0.78254547	-11.31904955	-2.36382062	-1.05112596	-30.59012396	30.37019425	54.7483637	0	0	10.60883627	-11.46318193	-0.18803046	58.76099861	51.43209521	0	0
5.43	1.06655666	8.31679799	166.4662019	0	0.84292884	-0.41164182	25.79114989	2.33938247	-18.25568803	31.91384951	0.55700175	6.23376415	-0.11515231	-7.45062485	-15.90324149	0.75563682	0.01318835	8.0867067	-7.26980071	-0.48176534	-11.42658181	-2.35371299	-1.01306344	-30.66417924	30.38350744	54.75719577	0	0	10.38285958	-11.30749994	-0.14070819	58.61439879	51.42854171	0	0
5.44	1.12641314	8.42351888	166.407561	0	0.8425084	-0.41239019	25.99623908	2.89704952	-18.30487213	29.67485849	0.51792399	5.5505801	-0.41970083	-7.5695615	-16.10027634	0.80382486	0.01402939	8.32768397	-7.40676396	-0.19232201	-11.56184077	-2.4400981	-0.94397076	-30.69543044	30.3647742	54.75860163	0	0	10.06887361	-11.12351111	-0.09441636	58.49576318	51.42303515	0	0
5.45	1.29512981	8.4382718	166.3213542	0	0.84192341	-0.41323965	26.32636148	3.43734818	-18.04460215	27.51064927	0.48015141	5.01367716	-0.60227739	-7.60634305	-16.20511853	0.82679436	0.01443028	8.55150154	-7.28938733	0.18077484	-11.71698869	-2.32807663	-0.88019339	-30.73930435	30.42324767	54.76599254	0	0	9.60852431	-10.9532815	-0.07309387	58.21785094	51.41382405	0	0
5.46	1.56029752	8.35614393	166.2521296	0	0.84114221	-0.41412176	26.76803376	3.91290832	-17.5170087	25.44418996	0.44408489	4.64009727	-0.66054066	-7.55260418	-16.17729807	0.82844735	0.01445913	8.76144304	-7.09394198	0.65343102	-11.85500612	-2.36860907	-0.89562958	-30.81638536	30.44076204	54.77320994	0	0	9.14715123	-10.73655606	-0.06380483	57.90042553	51.40338563	0	0
5.47	1.78532052	8.33688201	166.224837	0	0.84042903	-0.4150382	27.06408284	4.44249278	-16.82878029	23.35372099	0.40759932	4.27442886	-0.77201795	-7.58165843	-16.25485599	0.84847272	0.01480864	8.98544644	-6.77975699	1.02356276	-12.03538018	-2.36914364	-0.91550894	-30.87358091	30.37505444	54.77849553	0	0	8.55774648	-10.5321902	-0.13065509	57.36354122	51.38870718	0	0
